<svg xmlns="http://www.w3.org/2000/svg" xmlns:xlink="http://www.w3.org/1999/xlink" width="400" zoomAndPan="magnify" viewBox="0 0 300 299.999988" height="400" preserveAspectRatio="xMidYMid meet" version="1.0"><defs><g/><clipPath id="d51cf72e11"><path d="M 0 30 L 227 30 L 227 232.5 L 0 232.5 Z M 0 30 " clip-rule="nonzero"/></clipPath><clipPath id="58108b95bb"><path d="M 81.351562 42.917969 L 145.851562 42.917969 L 145.851562 107.417969 L 81.351562 107.417969 Z M 81.351562 42.917969 " clip-rule="nonzero"/></clipPath><clipPath id="4b3ce1d1a2"><rect x="0" width="201" y="0" height="78"/></clipPath></defs><g clip-path="url(#d51cf72e11)"><path fill="#545454" d="M 177.980469 121.492188 C 186.441406 118.121094 194.21875 115.429688 203.449219 115.769531 C 224.347656 116.539062 235.515625 134.65625 218.855469 146.96875 C 216.484375 148.722656 212.289062 151.464844 206.265625 155.210938 C 203.800781 156.746094 202.1875 158.199219 200.285156 161.136719 C 197.886719 164.839844 194.945312 165.636719 192.050781 167.558594 C 191.253906 168.089844 191.988281 167.507812 162.027344 201.484375 C 159.011719 204.90625 155.472656 208.726562 151.410156 212.945312 C 145.679688 218.894531 142.117188 222.707031 140.71875 224.371094 C 138.492188 227.03125 136.589844 228.746094 135.019531 229.503906 C 129.246094 232.289062 123.085938 232.523438 116.933594 231.902344 C 109.167969 231.121094 101.027344 229.269531 92.507812 226.34375 C 71.683594 219.199219 51.796875 209.796875 33.097656 198.074219 C 22.054688 191.152344 10.941406 183.171875 3.363281 172.269531 C 0.03125 167.472656 -0.558594 163.257812 0.441406 157.035156 C 2.09375 146.726562 3.210938 137.179688 5.40625 125.328125 C 7.949219 111.613281 10.476562 97.371094 12.96875 82.59375 C 13.117188 81.714844 13.042969 80.808594 12.75 79.96875 C 11.695312 76.921875 11.570312 72.636719 13.265625 69.621094 C 13.617188 68.996094 13.941406 68.378906 14.25 67.773438 C 16.246094 63.808594 11.421875 51.382812 13.945312 40.71875 C 16.328125 30.644531 26.007812 28.054688 34.839844 31.472656 C 45.636719 35.652344 52.421875 45.800781 56.394531 56.65625 C 57.085938 58.542969 57.964844 61.148438 59.046875 64.46875 C 59.222656 65.015625 59.667969 65.4375 60.222656 65.597656 C 66.820312 67.523438 73.429688 69.703125 80.035156 72.195312 C 144.015625 96.332031 175.355469 122.535156 177.980469 121.492188 Z M 22.324219 82.820312 C 22.957031 78.625 24.296875 74.8125 26.136719 71.34375 C 26.574219 70.519531 26.714844 69.574219 26.535156 68.65625 C 24.917969 60.398438 23.867188 55.300781 23.773438 48.160156 C 23.710938 43.269531 25.457031 39.484375 29.015625 36.816406 C 29.199219 36.675781 29.113281 36.386719 28.890625 36.363281 C 23.835938 35.839844 20.886719 38.21875 20.03125 43.488281 C 18.542969 52.695312 22.535156 61.015625 21.03125 69.390625 C 20.523438 72.210938 17.804688 73.808594 19.042969 77.433594 C 19.691406 79.328125 20.660156 81.160156 21.980469 82.90625 C 22.082031 83.039062 22.296875 82.992188 22.324219 82.820312 Z M 52.011719 62.972656 C 48.90625 55.3125 46.332031 48.152344 40.1875 42.5 C 38.652344 41.085938 36.964844 40.503906 35.140625 40.800781 C 34.773438 40.859375 34.679688 41.335938 34.992188 41.53125 L 37.722656 43.222656 C 37.761719 43.246094 37.800781 43.277344 37.832031 43.300781 C 43.085938 47.855469 46.550781 55.542969 48.394531 62.128906 C 48.519531 62.574219 48.878906 62.917969 49.332031 63.011719 L 51.578125 63.488281 C 51.871094 63.546875 52.128906 63.253906 52.011719 62.972656 Z M 41.089844 60.96875 C 39.851562 55.691406 36.238281 48.996094 31.015625 46.628906 C 30.863281 46.558594 30.667969 46.628906 30.597656 46.785156 C 30.480469 47.042969 30.417969 47.253906 30.410156 47.402344 C 30.230469 51.082031 30.730469 55.625 31.820312 61.03125 C 31.882812 61.34375 32.1875 61.550781 32.5 61.5 C 35.109375 61.054688 37.808594 61.070312 40.597656 61.5 C 40.902344 61.546875 41.160156 61.273438 41.089844 60.96875 Z M 33.480469 69.589844 C 36.402344 73.585938 39.929688 77.167969 44.085938 80.3125 C 63.1875 94.761719 84.40625 106.640625 106.75 117.40625 C 129.101562 128.175781 151.613281 137.363281 174.8125 143.296875 C 179.867188 144.589844 184.863281 145.117188 189.816406 144.914062 C 190.996094 144.863281 191.425781 144.175781 190.671875 143.132812 C 187.769531 139.117188 184.21875 135.554688 180.0625 132.40625 C 160.972656 117.953125 139.746094 106.089844 117.394531 95.320312 C 95.050781 84.554688 72.542969 75.347656 49.332031 69.417969 C 44.289062 68.132812 39.289062 67.574219 34.339844 67.804688 C 33.058594 67.863281 32.777344 68.625 33.480469 69.589844 Z M 37.691406 96.363281 C 37.585938 95.671875 37.511719 93.238281 37.457031 89.074219 C 37.410156 85.496094 36.0625 82.414062 33.417969 79.835938 C 31.921875 78.375 31.054688 77.539062 30.816406 77.308594 C 30.695312 77.195312 30.496094 77.230469 30.433594 77.386719 C 28.613281 81.824219 27.195312 87.890625 31.101562 91.617188 C 33.179688 93.59375 35.222656 95.277344 37.246094 96.636719 C 37.457031 96.777344 37.726562 96.605469 37.691406 96.363281 Z M 18.449219 88.722656 L 16.679688 99.613281 C 16.617188 100.003906 16.742188 100.410156 17.023438 100.691406 C 21.449219 105.167969 26.078125 109.15625 30.839844 112.777344 C 30.980469 112.882812 31.1875 112.808594 31.234375 112.636719 L 33.832031 103.457031 C 34.011719 102.8125 33.777344 102.117188 33.230469 101.710938 C 27.53125 97.472656 22.703125 93.101562 18.691406 88.652344 C 18.613281 88.566406 18.464844 88.605469 18.449219 88.722656 Z M 46.484375 102.03125 C 48.625 105.425781 53.328125 107.996094 56.800781 110.1875 C 56.941406 110.273438 57.121094 110.140625 57.105469 109.992188 C 56.648438 105.910156 56.328125 100.566406 54.1875 97.175781 C 52.050781 93.785156 47.34375 91.226562 43.882812 89.019531 C 43.726562 88.933594 43.554688 89.070312 43.570312 89.214844 C 44.023438 93.296875 44.347656 98.640625 46.484375 102.03125 Z M 65.625 113.773438 C 67.902344 117.101562 72.734375 119.496094 76.300781 121.585938 C 76.417969 121.664062 76.621094 121.5625 76.601562 121.382812 C 75.949219 117.304688 75.472656 111.933594 73.1875 108.597656 C 70.910156 105.265625 66.101562 102.832031 62.515625 100.785156 C 62.394531 100.71875 62.191406 100.800781 62.210938 100.988281 C 62.867188 105.0625 63.34375 110.4375 65.625 113.773438 Z M 39.203125 107.355469 C 37.035156 117.628906 36.960938 117.5625 37.105469 117.648438 L 47.164062 124.734375 C 48.457031 125.648438 48.769531 127.441406 47.859375 128.734375 L 47.546875 129.179688 C 46.542969 130.613281 44.5625 130.957031 43.117188 129.949219 L 35.273438 124.421875 C 35.042969 124.257812 34.722656 124.382812 34.660156 124.664062 L 32.40625 135.226562 C 32.359375 135.445312 32.445312 135.671875 32.632812 135.796875 L 49.371094 147.59375 C 49.761719 147.867188 50.289062 147.6875 50.445312 147.242188 L 53.804688 137.472656 C 53.875 137.269531 53.835938 137.054688 53.707031 136.890625 C 52.039062 134.824219 50.722656 132.664062 53.574219 130.785156 C 54.199219 130.371094 54.8125 130.332031 55.421875 130.652344 C 55.925781 130.917969 56.558594 130.667969 56.746094 130.121094 L 60.191406 120.089844 C 60.269531 119.871094 60.175781 119.636719 59.972656 119.527344 C 53.765625 116.191406 47.3125 111.976562 40.679688 106.820312 C 40.136719 106.398438 39.347656 106.6875 39.203125 107.355469 Z M 15.707031 108.417969 C 15.542969 108.253906 15.261719 108.332031 15.214844 108.558594 L 13.023438 118.855469 C 12.914062 119.347656 13.085938 119.855469 13.460938 120.191406 L 25.933594 131.199219 C 26.058594 131.308594 26.253906 131.246094 26.300781 131.089844 L 29.238281 120.699219 C 29.324219 120.394531 29.214844 120.074219 28.957031 119.886719 C 24.273438 116.441406 19.871094 112.585938 15.703125 108.417969 Z M 87.183594 126.839844 C 88.070312 127.558594 88.875 128.109375 89.589844 128.5 C 93.199219 130.453125 96.554688 132.230469 99.6875 133.808594 C 99.828125 133.882812 99.980469 133.765625 99.953125 133.609375 C 99.28125 130.023438 98.527344 126.691406 97.542969 123.652344 C 96.898438 121.648438 95.707031 119.933594 93.949219 118.515625 C 93.0625 117.796875 92.257812 117.238281 91.542969 116.851562 C 87.925781 114.914062 84.578125 113.121094 81.445312 111.542969 C 81.304688 111.472656 81.152344 111.589844 81.179688 111.746094 C 81.851562 115.332031 82.613281 118.660156 83.589844 121.703125 C 84.230469 123.703125 85.425781 125.421875 87.183594 126.839844 Z M 183.757812 126.214844 C 183.484375 126.308594 183.421875 126.667969 183.648438 126.847656 L 185.355469 128.210938 C 185.699219 128.484375 186.164062 128.539062 186.570312 128.359375 C 192.523438 125.722656 200.28125 123.511719 206.78125 124.703125 C 206.90625 124.726562 206.777344 124.714844 209.796875 125.71875 C 210.132812 125.828125 210.429688 125.46875 210.25 125.164062 C 209.347656 123.648438 207.910156 122.761719 205.945312 122.488281 C 198.074219 121.40625 191.214844 123.726562 183.757812 126.214844 Z M 110.617188 137.902344 C 111.507812 138.558594 112.308594 139.058594 113.019531 139.398438 C 116.59375 141.117188 119.925781 142.660156 123.015625 144.054688 C 123.15625 144.109375 123.296875 143.992188 123.265625 143.84375 C 122.515625 140.394531 121.566406 137.234375 120.472656 134.339844 C 119.757812 132.4375 118.527344 130.835938 116.769531 129.554688 C 115.875 128.898438 115.070312 128.402344 114.363281 128.0625 C 110.785156 126.359375 107.457031 124.792969 104.367188 123.410156 C 104.226562 123.347656 104.085938 123.472656 104.117188 123.613281 C 104.886719 127.058594 105.816406 130.222656 106.90625 133.117188 C 107.625 135.019531 108.867188 136.613281 110.617188 137.902344 Z M 91.757812 137.371094 C 91.820312 137.246094 91.773438 137.097656 91.648438 137.039062 L 66.257812 123.355469 C 66.117188 123.285156 65.945312 123.347656 65.890625 123.503906 L 62.210938 134.191406 C 62.171875 134.316406 62.21875 134.449219 62.335938 134.503906 L 86.589844 147.578125 C 86.722656 147.648438 86.886719 147.59375 86.949219 147.460938 Z M 217.054688 127.976562 C 217.972656 137.214844 206.964844 143.140625 199.878906 146.355469 C 196.582031 147.851562 193.945312 150.96875 190.125 151.726562 C 189.890625 151.773438 189.765625 152.015625 189.851562 152.234375 L 192.621094 158.8125 C 192.769531 159.171875 193.269531 159.210938 193.476562 158.875 C 199.910156 148.574219 210.773438 146.414062 217.695312 139.375 C 221.089844 135.921875 221.335938 131.082031 217.445312 127.773438 C 217.28125 127.636719 217.035156 127.765625 217.054688 127.976562 Z M 24.242188 138.410156 L 11.957031 127.574219 C 11.816406 127.449219 11.597656 127.527344 11.566406 127.714844 C 9.980469 137.351562 9.96875 137.234375 10.105469 137.371094 L 22.394531 148.21875 C 22.535156 148.34375 22.753906 148.265625 22.785156 148.078125 C 24.367188 138.429688 24.382812 138.550781 24.242188 138.410156 Z M 191.621094 133.652344 L 196.667969 140.382812 C 196.785156 140.546875 197.003906 140.601562 197.191406 140.515625 C 201.640625 138.433594 205.492188 135.695312 208.777344 132.40625 C 209.0625 132.117188 208.917969 131.632812 208.519531 131.546875 C 202.996094 130.378906 197.390625 130.84375 191.785156 133.085938 C 191.558594 133.175781 191.476562 133.457031 191.621094 133.652344 Z M 146.417969 152.621094 C 145.539062 150.722656 144.421875 147.679688 143.105469 143.484375 C 142.332031 141.023438 140.929688 139.867188 138.871094 138.777344 C 136.742188 137.644531 132.925781 135.996094 127.457031 133.722656 C 127.253906 133.640625 127.046875 133.824219 127.101562 134.035156 C 128.355469 138.804688 129.511719 141.972656 130.53125 143.570312 C 133.988281 148.992188 140.410156 150.980469 146.164062 152.917969 C 146.34375 152.976562 146.5 152.792969 146.417969 152.621094 Z M 90.058594 156.589844 L 85.1875 166.789062 C 85.101562 166.96875 85.1875 167.195312 85.375 167.273438 L 110.339844 177.984375 C 110.648438 178.117188 111.007812 178 111.179688 177.703125 L 116.597656 168.324219 C 116.746094 168.074219 116.625 167.753906 116.351562 167.660156 L 110.714844 165.722656 C 109.105469 165.167969 108.21875 163.46875 108.667969 161.832031 L 108.816406 161.292969 C 109.300781 159.554688 111.203125 158.648438 112.855469 159.359375 L 119.75 162.316406 C 119.957031 162.398438 120.207031 162.324219 120.316406 162.128906 L 125.90625 152.445312 C 125.992188 152.296875 125.929688 152.101562 125.773438 152.03125 L 97.996094 140.121094 C 97.871094 140.0625 97.722656 140.113281 97.667969 140.234375 L 93.03125 149.941406 C 92.898438 150.214844 93.015625 150.535156 93.289062 150.667969 L 100.257812 153.996094 C 101.753906 154.714844 102.386719 156.5 101.675781 157.996094 L 101.566406 158.222656 C 100.804688 159.8125 98.902344 160.484375 97.308594 159.726562 L 90.457031 156.453125 C 90.308594 156.382812 90.128906 156.445312 90.058594 156.59375 Z M 79.050781 163.894531 C 79.273438 163.996094 79.527344 163.902344 79.628906 163.675781 L 83.863281 153.800781 C 83.9375 153.621094 83.871094 153.417969 83.699219 153.324219 L 60.121094 140.625 C 59.917969 140.515625 59.667969 140.609375 59.597656 140.824219 L 56.144531 150.875 C 56.027344 151.203125 56.167969 151.5625 56.464844 151.734375 C 62.308594 155.121094 70.492188 160.132812 79.050781 163.894531 Z M 167.890625 158.96875 C 168.09375 159.007812 168.257812 158.78125 168.15625 158.59375 C 164.183594 151.21875 164.242188 148.925781 162.058594 147.015625 C 159.855469 145.089844 157.84375 145.609375 149.78125 142.488281 C 149.585938 142.410156 149.382812 142.597656 149.453125 142.800781 C 153.257812 153.960938 156.316406 156.722656 167.890625 158.96875 Z M 47.648438 154.53125 C 47.695312 154.40625 47.648438 154.265625 47.539062 154.195312 L 30.953125 142.511719 C 30.78125 142.386719 30.542969 142.488281 30.496094 142.6875 L 28.414062 152.464844 C 28.390625 152.582031 28.4375 152.707031 28.53125 152.769531 L 44.257812 163.847656 C 44.421875 163.964844 44.644531 163.886719 44.707031 163.699219 Z M 7.949219 154.414062 L 19.433594 164.550781 C 19.574219 164.675781 19.808594 164.597656 19.839844 164.402344 C 21.234375 155.75 21.285156 155.886719 21.132812 155.730469 L 9.171875 145.183594 C 9.015625 145.050781 8.777344 145.144531 8.757812 145.347656 C 7.957031 154.417969 7.808594 154.273438 7.949219 154.414062 Z M 170.902344 149.628906 C 173.835938 156.507812 177.339844 162.457031 185.878906 161.394531 C 186.175781 161.355469 186.351562 161.050781 186.238281 160.769531 L 182.546875 151.980469 C 182.480469 151.824219 182.339844 151.710938 182.175781 151.679688 L 171.148438 149.324219 C 170.976562 149.285156 170.832031 149.464844 170.898438 149.628906 Z M 148.632812 172.128906 C 148.742188 172.160156 148.859375 172.121094 148.921875 172.027344 L 155.324219 162.945312 C 155.417969 162.804688 155.355469 162.609375 155.191406 162.554688 L 132.464844 154.742188 C 132.347656 154.703125 132.214844 154.75 132.152344 154.859375 L 126.46875 164.699219 C 126.390625 164.839844 126.460938 165.019531 126.617188 165.066406 L 148.636719 172.128906 Z M 54.0625 157.660156 C 53.863281 157.535156 53.605469 157.628906 53.527344 157.847656 L 50.398438 166.953125 C 50.347656 167.109375 50.40625 167.28125 50.546875 167.359375 L 71.03125 179.183594 C 71.457031 179.425781 71.996094 179.261719 72.214844 178.820312 L 76.199219 170.476562 C 76.308594 170.242188 76.222656 169.960938 75.996094 169.835938 C 74.679688 169.109375 72.40625 167.929688 69.191406 166.273438 C 68.042969 165.683594 57.640625 159.851562 54.066406 157.660156 Z M 25.519531 168.800781 C 25.503906 168.894531 25.542969 168.980469 25.621094 169.035156 L 39.382812 178.730469 C 39.515625 178.824219 39.695312 178.765625 39.75 178.609375 L 42.265625 170.757812 C 42.296875 170.65625 42.257812 170.546875 42.175781 170.484375 L 27.304688 159.996094 C 27.15625 159.886719 26.957031 159.972656 26.921875 160.152344 Z M 6.902344 162.40625 C 6.714844 162.25 6.4375 162.40625 6.46875 162.648438 C 7.179688 168.398438 12.773438 174.445312 17.554688 178.507812 C 17.597656 178.546875 17.671875 178.523438 17.679688 178.460938 C 18.5 171.996094 18.5625 172.148438 18.355469 171.980469 Z M 182.191406 167.800781 C 176.277344 167.320312 169.945312 166.171875 163.167969 164.464844 C 162.761719 164.363281 162.332031 164.519531 162.089844 164.863281 L 156 173.519531 C 155.84375 173.742188 155.96875 174.054688 156.242188 174.101562 L 174.011719 176.980469 C 174.339844 177.035156 174.664062 176.917969 174.890625 176.667969 L 182.351562 168.207031 C 182.484375 168.058594 182.390625 167.820312 182.1875 167.800781 Z M 117.363281 179.941406 C 117.253906 180.128906 117.347656 180.371094 117.558594 180.441406 L 136.992188 186.667969 C 137.117188 186.71875 137.257812 186.675781 137.351562 186.570312 L 144.617188 178.328125 C 144.773438 178.148438 144.695312 177.859375 144.46875 177.78125 L 123.15625 170.460938 C 123 170.40625 122.828125 170.46875 122.75 170.609375 Z M 78.226562 182.257812 L 83.996094 185.015625 C 85.476562 185.726562 86.117188 187.472656 85.484375 188.984375 C 84.691406 190.878906 82.863281 191.355469 81.46875 190.761719 L 75.613281 188.25 C 75.402344 188.15625 75.152344 188.25 75.050781 188.460938 L 71.519531 195.859375 C 71.402344 196.109375 71.511719 196.40625 71.761719 196.515625 L 92.585938 205.449219 C 92.828125 205.550781 93.109375 205.472656 93.261719 205.261719 L 97.847656 198.746094 C 98.097656 198.394531 97.957031 197.902344 97.558594 197.75 L 90.316406 194.863281 C 88.6875 194.21875 87.890625 192.359375 88.554688 190.730469 L 88.65625 190.457031 C 89.273438 188.820312 91.128906 188.035156 92.734375 188.71875 L 101.472656 192.46875 C 101.761719 192.59375 102.097656 192.484375 102.25 192.210938 L 107.085938 183.839844 C 107.195312 183.652344 107.109375 183.421875 106.914062 183.347656 C 97.921875 180.003906 89.863281 176.386719 82.652344 172.785156 C 82.527344 172.722656 82.371094 172.777344 82.308594 172.902344 L 78.058594 181.796875 C 77.980469 181.96875 78.050781 182.179688 78.222656 182.257812 Z M 48.027344 174.0625 L 45.441406 182.125 C 45.355469 182.40625 45.449219 182.714844 45.683594 182.894531 C 47.460938 184.257812 47.632812 186.003906 46.195312 188.117188 C 46.046875 188.335938 45.832031 188.5 45.582031 188.585938 L 43.648438 189.25 C 43.414062 189.328125 43.234375 189.515625 43.164062 189.746094 L 41.488281 194.957031 C 41.371094 195.304688 41.527344 195.695312 41.855469 195.875 L 59.394531 205.730469 C 59.480469 205.769531 59.582031 205.738281 59.621094 205.652344 L 62.484375 199.671875 C 62.546875 199.546875 62.492188 199.390625 62.367188 199.328125 L 54.203125 195.011719 C 52.742188 194.238281 51.894531 192.433594 52.730469 190.472656 C 53.414062 188.871094 55.3125 188.1875 56.847656 189.015625 L 64.980469 193.398438 C 65.214844 193.523438 65.503906 193.429688 65.617188 193.1875 L 69.128906 185.859375 C 69.261719 185.5625 69.152344 185.21875 68.871094 185.0625 L 48.265625 173.96875 C 48.179688 173.921875 48.0625 173.960938 48.03125 174.0625 Z M 37.566406 185.53125 C 37.597656 185.429688 37.558594 185.320312 37.472656 185.25 L 24.632812 176.214844 C 24.476562 176.097656 24.257812 176.199219 24.234375 176.386719 C 23.429688 183.515625 23.460938 183.394531 23.640625 183.535156 L 35.242188 191.707031 C 35.382812 191.800781 35.578125 191.738281 35.625 191.582031 Z M 144.71875 188.484375 C 144.605469 188.632812 144.679688 188.851562 144.867188 188.890625 C 161.238281 192.34375 161.089844 192.429688 161.257812 192.257812 L 169.039062 183.433594 C 169.164062 183.285156 169.085938 183.050781 168.898438 183.011719 L 151.910156 179.386719 C 151.816406 179.371094 151.714844 179.402344 151.652344 179.480469 Z M 108.429688 194.597656 C 108.351562 194.730469 108.414062 194.910156 108.570312 194.957031 L 126.03125 200.5625 C 126.125 200.585938 126.226562 200.5625 126.296875 200.484375 L 133.160156 192.71875 C 133.277344 192.578125 133.214844 192.367188 133.042969 192.3125 L 113.582031 186.078125 C 113.464844 186.035156 113.347656 186.085938 113.285156 186.183594 Z M 155.84375 197.648438 C 150.675781 196.863281 145.605469 195.824219 140.671875 194.3125 C 140.402344 194.226562 140.113281 194.320312 139.949219 194.535156 L 134.117188 202.136719 C 134.03125 202.246094 134.09375 202.417969 134.234375 202.449219 L 148.664062 205.480469 C 149.101562 205.574219 149.554688 205.421875 149.84375 205.085938 L 156 198.074219 C 156.132812 197.917969 156.039062 197.675781 155.84375 197.648438 Z M 104.71875 200.609375 C 104.609375 200.578125 104.492188 200.617188 104.429688 200.710938 L 99.632812 207.515625 C 99.53125 207.65625 99.601562 207.859375 99.765625 207.914062 L 115.265625 212.882812 C 115.367188 212.914062 115.476562 212.890625 115.539062 212.8125 L 121.277344 206.308594 C 121.394531 206.167969 121.339844 205.949219 121.160156 205.898438 Z M 65.664062 208.335938 C 65.609375 208.460938 65.664062 208.617188 65.796875 208.671875 L 85.132812 216.964844 C 85.242188 217.011719 85.367188 216.972656 85.4375 216.878906 L 89.203125 211.523438 C 89.296875 211.398438 89.242188 211.210938 89.101562 211.148438 L 68.753906 202.417969 C 68.628906 202.363281 68.488281 202.417969 68.433594 202.542969 Z M 123.054688 214.402344 C 122.898438 214.582031 122.992188 214.871094 123.234375 214.917969 L 137.625 217.558594 C 137.820312 217.589844 138.023438 217.527344 138.15625 217.386719 L 144.097656 211.195312 C 144.152344 211.140625 144.121094 211.0625 144.050781 211.046875 L 129.347656 208.078125 C 129.011719 208 128.660156 208.117188 128.425781 208.375 L 123.054688 214.398438 Z M 105.738281 223.382812 C 105.824219 223.40625 105.925781 223.375 105.988281 223.304688 L 110.238281 218.496094 C 110.355469 218.355469 110.292969 218.144531 110.121094 218.089844 L 95.984375 213.558594 C 95.882812 213.527344 95.773438 213.566406 95.703125 213.652344 L 91.859375 219.109375 C 91.761719 219.25 91.828125 219.445312 91.992188 219.492188 Z M 132.136719 223.164062 L 117.902344 220.382812 C 117.648438 220.328125 117.792969 220.277344 113.425781 224.855469 C 113.386719 224.902344 113.410156 224.972656 113.472656 224.980469 C 119.492188 225.890625 127.46875 226.660156 132.222656 223.640625 C 132.417969 223.515625 132.363281 223.203125 132.136719 223.164062 Z M 132.136719 223.164062 " fill-opacity="1" fill-rule="nonzero"/></g><g clip-path="url(#58108b95bb)"><path fill="#ffffff" d="M 113.457031 42.917969 C 95.71875 42.917969 81.351562 57.285156 81.351562 75.019531 C 81.351562 92.757812 95.71875 107.125 113.457031 107.125 C 131.191406 107.125 145.558594 92.757812 145.558594 75.019531 C 145.558594 57.285156 131.191406 42.917969 113.457031 42.917969 Z M 113.457031 42.917969 " fill-opacity="1" fill-rule="nonzero"/></g><g transform="matrix(1, 0, 0, 1, 92, 27)"><g clip-path="url(#4b3ce1d1a2)"><g fill="#000000" fill-opacity="1"><g transform="translate(4.331531, 58.971376)"><g><path d="M 5.390625 10.953125 C 4.660156 11.234375 4.015625 11.375 3.453125 11.375 C 2.523438 11.375 1.597656 11.160156 0.671875 10.734375 C -0.253906 10.316406 -1.0625 9.722656 -1.75 8.953125 C -2.15625 8.546875 -2.359375 8.125 -2.359375 7.6875 C -2.359375 7.445312 -2.296875 7.144531 -2.171875 6.78125 C -1.972656 6.050781 -1.710938 5.6875 -1.390625 5.6875 C -1.234375 5.6875 -1 5.796875 -0.6875 6.015625 C -0.382812 6.242188 -0.113281 6.519531 0.125 6.84375 C 0.925781 7.519531 1.691406 7.859375 2.421875 7.859375 C 3.867188 7.859375 5.398438 6.609375 7.015625 4.109375 L 8.59375 0.609375 C 10.851562 -4.359375 12.125 -7.265625 12.40625 -8.109375 C 12.40625 -8.148438 12.425781 -8.226562 12.46875 -8.34375 C 12.507812 -8.46875 12.585938 -8.609375 12.703125 -8.765625 C 12.742188 -8.929688 12.851562 -9.273438 13.03125 -9.796875 C 13.21875 -10.328125 13.367188 -10.875 13.484375 -11.4375 L 16.03125 -18.640625 C 16.195312 -19.441406 16.429688 -20.316406 16.734375 -21.265625 C 17.035156 -22.210938 17.304688 -23.007812 17.546875 -23.65625 C 17.703125 -23.976562 18.304688 -25.710938 19.359375 -28.859375 C 19.847656 -30.390625 20.269531 -31.703125 20.625 -32.796875 C 20.789062 -33.273438 21.09375 -34.238281 21.53125 -35.6875 C 21.976562 -37.144531 22.160156 -37.929688 22.078125 -38.046875 L 18.6875 -37.453125 C 18.25 -37.242188 17.707031 -37.140625 17.0625 -37.140625 C 16.65625 -37.140625 16.320312 -37.179688 16.0625 -37.265625 C 15.800781 -37.347656 15.691406 -37.453125 15.734375 -37.578125 L 15.734375 -37.875 C 15.523438 -37.707031 15.25 -37.816406 14.90625 -38.203125 C 14.570312 -38.585938 14.421875 -38.941406 14.453125 -39.265625 C 14.453125 -39.585938 14.84375 -39.878906 15.625 -40.140625 C 16.414062 -40.398438 17.457031 -40.613281 18.75 -40.78125 L 23.109375 -41.375 C 23.304688 -41.539062 23.804688 -41.472656 24.609375 -41.171875 C 25.421875 -40.867188 25.988281 -40.554688 26.3125 -40.234375 C 26.632812 -39.785156 26.796875 -39.34375 26.796875 -38.90625 C 26.796875 -38.332031 26.625 -37.53125 26.28125 -36.5 C 25.9375 -35.476562 25.160156 -33.332031 23.953125 -30.0625 L 21.96875 -24.4375 C 21 -21.5 20.25 -19.421875 19.71875 -18.203125 C 19.5625 -17.679688 19.34375 -17.039062 19.0625 -16.28125 C 18.375 -14.300781 17.867188 -12.726562 17.546875 -11.5625 C 17.054688 -10.425781 16.53125 -8.890625 15.96875 -6.953125 C 15.96875 -6.628906 15.882812 -6.265625 15.71875 -5.859375 C 15.5625 -5.460938 15.382812 -5.164062 15.1875 -4.96875 L 13.734375 -1.390625 L 13.1875 0.0625 C 13.101562 0.300781 12.890625 0.84375 12.546875 1.6875 C 12.210938 2.539062 11.898438 3.164062 11.609375 3.5625 C 11.492188 3.882812 11.273438 4.304688 10.953125 4.828125 C 10.628906 5.359375 10.46875 5.6875 10.46875 5.8125 C 10.46875 5.851562 10.445312 5.921875 10.40625 6.015625 C 10.363281 6.117188 10.28125 6.171875 10.15625 6.171875 C 10.125 6.210938 10.054688 6.28125 9.953125 6.375 C 9.847656 6.476562 9.796875 6.613281 9.796875 6.78125 C 9.597656 7.257812 8.972656 8.003906 7.921875 9.015625 C 6.878906 10.023438 6.035156 10.671875 5.390625 10.953125 Z M 5.390625 10.953125 "/></g></g></g><g fill="#000000" fill-opacity="1"><g transform="translate(22.237912, 58.971376)"><g><path d="M 10.21875 -0.90625 C 9.738281 -0.90625 9.359375 -0.984375 9.078125 -1.140625 C 8.796875 -1.304688 8.390625 -1.613281 7.859375 -2.0625 C 6.535156 -3.46875 5.875 -4.753906 5.875 -5.921875 C 5.875 -6.210938 5.890625 -6.414062 5.921875 -6.53125 C 6.046875 -6.8125 6.097656 -7.09375 6.078125 -7.375 C 6.054688 -7.65625 6.046875 -7.835938 6.046875 -7.921875 C 5.890625 -8.085938 5.8125 -8.195312 5.8125 -8.25 C 5.8125 -8.3125 5.847656 -8.375 5.921875 -8.4375 C 6.003906 -8.5 6.066406 -8.570312 6.109375 -8.65625 C 6.347656 -8.65625 6.429688 -8.875 6.359375 -9.3125 C 6.273438 -9.632812 6.429688 -10.347656 6.828125 -11.453125 C 7.234375 -12.566406 7.738281 -13.585938 8.34375 -14.515625 C 8.789062 -15.242188 9.445312 -16.148438 10.3125 -17.234375 C 11.175781 -18.328125 11.953125 -19.15625 12.640625 -19.71875 C 13.609375 -20.570312 14.472656 -21.195312 15.234375 -21.59375 C 16.003906 -22 16.851562 -22.300781 17.78125 -22.5 C 18.59375 -22.707031 19.140625 -22.8125 19.421875 -22.8125 C 19.703125 -22.8125 19.953125 -22.738281 20.171875 -22.59375 C 20.398438 -22.457031 20.691406 -22.207031 21.046875 -21.84375 C 22.140625 -21.351562 22.894531 -20.734375 23.3125 -19.984375 C 23.738281 -19.242188 23.953125 -18.085938 23.953125 -16.515625 C 23.953125 -13.890625 22.882812 -11.046875 20.75 -7.984375 C 19.820312 -6.648438 18.953125 -5.628906 18.140625 -4.921875 C 17.335938 -4.222656 16.269531 -3.46875 14.9375 -2.65625 C 14.09375 -2.050781 13.316406 -1.617188 12.609375 -1.359375 C 11.910156 -1.097656 11.113281 -0.945312 10.21875 -0.90625 Z M 16.03125 -7.328125 C 17 -8.410156 17.773438 -9.4375 18.359375 -10.40625 C 18.941406 -11.375 19.5 -12.601562 20.03125 -14.09375 C 20.226562 -14.78125 20.328125 -15.609375 20.328125 -16.578125 C 20.328125 -17.785156 20.164062 -18.472656 19.84375 -18.640625 C 19.4375 -18.835938 19.035156 -18.9375 18.640625 -18.9375 C 17.742188 -18.9375 16.8125 -18.53125 15.84375 -17.71875 C 14.675781 -16.71875 13.628906 -15.476562 12.703125 -14 C 11.773438 -12.53125 10.828125 -10.707031 9.859375 -8.53125 C 9.453125 -7.6875 9.25 -6.859375 9.25 -6.046875 C 9.25 -5.441406 9.398438 -4.957031 9.703125 -4.59375 C 10.003906 -4.226562 10.421875 -4.046875 10.953125 -4.046875 C 12.285156 -4.046875 13.976562 -5.140625 16.03125 -7.328125 Z M 16.03125 -7.328125 "/></g></g></g><g fill="#000000" fill-opacity="1"><g transform="translate(43.592549, 58.971376)"><g><path d="M 12.765625 -1.03125 C 11.960938 -1.113281 11.46875 -1.210938 11.28125 -1.328125 C 11.101562 -1.453125 10.890625 -1.773438 10.640625 -2.296875 C 10.316406 -2.617188 10.125 -2.878906 10.0625 -3.078125 C 10.007812 -3.285156 10.003906 -3.488281 10.046875 -3.6875 C 10.523438 -3.6875 10.804688 -3.769531 10.890625 -3.9375 C 10.890625 -4.050781 10.957031 -4.128906 11.09375 -4.171875 C 11.238281 -4.210938 11.394531 -4.210938 11.5625 -4.171875 C 12.644531 -4.085938 14.210938 -4.648438 16.265625 -5.859375 C 18.328125 -7.078125 20.390625 -8.632812 22.453125 -10.53125 C 23.617188 -12.019531 24.429688 -13.1875 24.890625 -14.03125 C 25.359375 -14.882812 25.59375 -15.570312 25.59375 -16.09375 C 25.59375 -16.414062 25.53125 -16.71875 25.40625 -17 C 25.289062 -17.28125 24.867188 -17.421875 24.140625 -17.421875 C 22.890625 -17.421875 21.597656 -16.976562 20.265625 -16.09375 C 18.535156 -15 17.144531 -14 16.09375 -13.09375 C 15.039062 -12.1875 14.070312 -11.128906 13.1875 -9.921875 C 12.78125 -9.398438 12.375 -8.742188 11.96875 -7.953125 C 11.570312 -7.171875 11.3125 -6.65625 11.1875 -6.40625 C 11.1875 -6.25 10.953125 -6.046875 10.484375 -5.796875 C 10.023438 -5.554688 9.632812 -5.4375 9.3125 -5.4375 C 9.113281 -5.519531 8.882812 -5.679688 8.625 -5.921875 C 8.363281 -6.171875 8.210938 -6.457031 8.171875 -6.78125 C 8.085938 -6.851562 7.953125 -6.953125 7.765625 -7.078125 C 7.585938 -7.203125 7.46875 -7.320312 7.40625 -7.4375 C 7.351562 -7.5625 7.328125 -7.703125 7.328125 -7.859375 C 7.328125 -8.109375 7.4375 -8.644531 7.65625 -9.46875 C 7.875 -10.289062 8.046875 -10.90625 8.171875 -11.3125 C 8.492188 -12.84375 8.90625 -14.4375 9.40625 -16.09375 C 9.90625 -17.75 10.257812 -18.65625 10.46875 -18.8125 C 10.507812 -18.894531 10.597656 -19.117188 10.734375 -19.484375 C 10.878906 -19.847656 10.953125 -20.226562 10.953125 -20.625 C 11.035156 -20.988281 11.164062 -21.398438 11.34375 -21.859375 C 11.519531 -22.328125 11.609375 -22.601562 11.609375 -22.6875 C 11.816406 -22.84375 12.460938 -24.4375 13.546875 -27.46875 C 13.546875 -27.625 13.992188 -28.691406 14.890625 -30.671875 C 16.210938 -33.703125 17.015625 -35.640625 17.296875 -36.484375 C 17.660156 -37.003906 17.984375 -37.546875 18.265625 -38.109375 C 18.710938 -38.921875 19.035156 -39.367188 19.234375 -39.453125 C 19.554688 -39.523438 19.96875 -39.460938 20.46875 -39.265625 C 20.976562 -39.066406 21.375 -38.765625 21.65625 -38.359375 C 21.863281 -38.078125 21.96875 -37.875 21.96875 -37.75 C 21.96875 -37.550781 21.851562 -37.175781 21.625 -36.625 C 21.40625 -36.082031 21.15625 -35.53125 20.875 -34.96875 C 20.59375 -34.40625 20.390625 -33.984375 20.265625 -33.703125 L 18.75 -30.546875 C 17.664062 -28.253906 16.78125 -26.207031 16.09375 -24.40625 C 15.40625 -22.613281 14.679688 -20.566406 13.921875 -18.265625 L 12.828125 -15.3125 L 12.53125 -13.96875 L 14.03125 -15.421875 C 14.519531 -15.785156 15.410156 -16.535156 16.703125 -17.671875 C 16.984375 -17.910156 17.234375 -18.117188 17.453125 -18.296875 C 17.671875 -18.484375 17.84375 -18.632812 17.96875 -18.75 C 18.445312 -19.070312 19.148438 -19.4375 20.078125 -19.84375 C 21.015625 -20.25 21.660156 -20.488281 22.015625 -20.5625 C 22.828125 -20.769531 23.71875 -20.875 24.6875 -20.875 C 25.53125 -20.875 26.234375 -20.671875 26.796875 -20.265625 C 27.367188 -19.859375 27.914062 -19.210938 28.4375 -18.328125 C 28.800781 -17.609375 28.984375 -16.820312 28.984375 -15.96875 C 28.984375 -14.71875 28.660156 -13.550781 28.015625 -12.46875 C 27.804688 -12.300781 27.601562 -12.085938 27.40625 -11.828125 C 27.207031 -11.566406 27.109375 -11.351562 27.109375 -11.1875 C 27.066406 -10.945312 26.722656 -10.398438 26.078125 -9.546875 C 25.429688 -8.703125 24.722656 -7.859375 23.953125 -7.015625 C 22.910156 -5.929688 21.53125 -4.84375 19.8125 -3.75 C 18.101562 -2.664062 16.679688 -1.921875 15.546875 -1.515625 C 15.304688 -1.472656 14.851562 -1.398438 14.1875 -1.296875 C 13.519531 -1.203125 13.046875 -1.113281 12.765625 -1.03125 Z M 12.765625 -1.03125 "/></g></g></g><g fill="#000000" fill-opacity="1"><g transform="translate(69.907746, 58.971376)"><g/></g></g><g fill="#000000" fill-opacity="1"><g transform="translate(84.547474, 58.971376)"><g><path d="M 10.59375 1.203125 C 9.175781 0.117188 8.242188 -0.734375 7.796875 -1.359375 C 7.359375 -1.984375 7.097656 -2.757812 7.015625 -3.6875 C 6.972656 -3.894531 6.953125 -4.257812 6.953125 -4.78125 C 6.953125 -5.90625 7.050781 -7.316406 7.25 -9.015625 C 7.457031 -10.710938 7.660156 -12.0625 7.859375 -13.0625 C 8.023438 -13.226562 8.117188 -13.472656 8.140625 -13.796875 C 8.160156 -14.117188 8.148438 -14.320312 8.109375 -14.40625 C 8.109375 -14.519531 8.207031 -14.921875 8.40625 -15.609375 C 8.894531 -17.097656 9.238281 -18.347656 9.4375 -19.359375 C 10.53125 -22.671875 11.597656 -25.3125 12.640625 -27.28125 C 13.691406 -29.257812 14.863281 -31.113281 16.15625 -32.84375 C 17.882812 -34.625 19.242188 -35.925781 20.234375 -36.75 C 21.222656 -37.582031 22.320312 -38.28125 23.53125 -38.84375 C 25.101562 -39.769531 26.234375 -40.234375 26.921875 -40.234375 C 27.046875 -40.234375 27.226562 -40.191406 27.46875 -40.109375 C 29.726562 -39.628906 31.421875 -38.710938 32.546875 -37.359375 C 33.679688 -36.003906 34.507812 -33.914062 35.03125 -31.09375 C 35.394531 -28.632812 35.578125 -26.78125 35.578125 -25.53125 C 35.578125 -23.507812 35.210938 -21.46875 34.484375 -19.40625 C 33.753906 -17.351562 32.441406 -14.773438 30.546875 -11.671875 C 28.367188 -7.398438 25.796875 -3.972656 22.828125 -1.390625 C 19.867188 1.191406 17.078125 2.484375 14.453125 2.484375 C 13.046875 2.484375 11.757812 2.054688 10.59375 1.203125 Z M 14.453125 -0.546875 C 15.828125 -0.703125 17.128906 -1.234375 18.359375 -2.140625 C 19.585938 -3.054688 21.109375 -4.5625 22.921875 -6.65625 C 24.492188 -8.46875 25.613281 -9.835938 26.28125 -10.765625 C 26.945312 -11.691406 27.539062 -12.800781 28.0625 -14.09375 C 28.59375 -15.382812 29.242188 -17.363281 30.015625 -20.03125 C 30.453125 -21.71875 30.738281 -23.035156 30.875 -23.984375 C 31.019531 -24.929688 31.09375 -26.070312 31.09375 -27.40625 L 31.03125 -31.34375 C 30.988281 -32.03125 30.847656 -32.742188 30.609375 -33.484375 C 30.367188 -34.234375 30.085938 -34.789062 29.765625 -35.15625 C 29.160156 -35.832031 28.375 -36.171875 27.40625 -36.171875 C 26.800781 -36.171875 26.21875 -36.03125 25.65625 -35.75 C 24.882812 -35.425781 23.753906 -34.488281 22.265625 -32.9375 C 20.773438 -31.382812 19.429688 -29.789062 18.234375 -28.15625 C 17.046875 -26.53125 16.453125 -25.472656 16.453125 -24.984375 C 16.453125 -24.941406 16.429688 -24.820312 16.390625 -24.625 C 16.347656 -24.425781 16.269531 -24.242188 16.15625 -24.078125 C 15.46875 -23.347656 14.695312 -21.875 13.84375 -19.65625 C 13 -17.4375 12.253906 -15.035156 11.609375 -12.453125 C 10.960938 -9.878906 10.601562 -7.722656 10.53125 -5.984375 L 10.40625 -3.9375 C 10.40625 -3.570312 10.4375 -3.285156 10.5 -3.078125 C 10.5625 -2.878906 10.691406 -2.648438 10.890625 -2.390625 C 11.085938 -2.128906 11.269531 -1.859375 11.4375 -1.578125 C 11.632812 -1.253906 11.953125 -0.988281 12.390625 -0.78125 C 12.835938 -0.582031 13.304688 -0.484375 13.796875 -0.484375 C 14.078125 -0.484375 14.296875 -0.503906 14.453125 -0.546875 Z M 14.453125 -0.546875 "/></g></g></g><g fill="#000000" fill-opacity="1"><g transform="translate(115.762857, 58.971376)"><g><path d="M 7.4375 6.40625 C 7.195312 6.570312 6.9375 6.539062 6.65625 6.3125 C 6.375 6.09375 5.929688 5.644531 5.328125 4.96875 C 5.085938 4.71875 4.925781 4.484375 4.84375 4.265625 C 4.757812 4.046875 4.71875 3.753906 4.71875 3.390625 L 4.84375 1.875 C 5.039062 1.269531 5.140625 0.566406 5.140625 -0.234375 C 5.140625 -0.554688 5.28125 -1.578125 5.5625 -3.296875 C 5.84375 -5.015625 6.066406 -6.253906 6.234375 -7.015625 L 6.40625 -7.75 C 6.726562 -9.070312 6.972656 -10.300781 7.140625 -11.4375 C 7.460938 -12.445312 7.734375 -13.441406 7.953125 -14.421875 C 8.171875 -15.410156 8.28125 -16.085938 8.28125 -16.453125 C 8.28125 -17.179688 8.566406 -17.707031 9.140625 -18.03125 C 9.179688 -18.351562 9.484375 -19.019531 10.046875 -20.03125 C 11.015625 -22.769531 11.726562 -24.734375 12.1875 -25.921875 C 12.65625 -27.109375 13.148438 -28.148438 13.671875 -29.046875 C 14.398438 -31.054688 14.984375 -32.320312 15.421875 -32.84375 C 15.703125 -33.53125 16.46875 -34.539062 17.71875 -35.875 C 18.976562 -37.207031 20.085938 -38.273438 21.046875 -39.078125 C 21.941406 -39.566406 22.660156 -39.878906 23.203125 -40.015625 C 23.742188 -40.160156 24.421875 -40.234375 25.234375 -40.234375 C 25.910156 -40.234375 26.378906 -40.160156 26.640625 -40.015625 C 26.910156 -39.878906 27.347656 -39.53125 27.953125 -38.96875 C 28.472656 -38.351562 28.785156 -37.945312 28.890625 -37.75 C 28.992188 -37.550781 29.046875 -37.171875 29.046875 -36.609375 C 28.878906 -35.753906 28.472656 -34.660156 27.828125 -33.328125 C 27.179688 -32.003906 26.695312 -31.320312 26.375 -31.28125 C 26.257812 -31.238281 26.097656 -31.21875 25.890625 -31.21875 C 25.285156 -31.21875 24.984375 -31.722656 24.984375 -32.734375 C 24.984375 -32.972656 24.921875 -33.210938 24.796875 -33.453125 C 24.679688 -33.691406 24.601562 -33.851562 24.5625 -33.9375 C 24.5625 -34.539062 24.703125 -35.046875 24.984375 -35.453125 C 25.109375 -35.691406 25.171875 -35.914062 25.171875 -36.125 C 25.171875 -36.320312 25.097656 -36.453125 24.953125 -36.515625 C 24.816406 -36.578125 24.609375 -36.566406 24.328125 -36.484375 C 23.960938 -36.273438 23.0625 -35.554688 21.625 -34.328125 C 20.195312 -33.097656 19.484375 -32.363281 19.484375 -32.125 C 19.441406 -32.039062 19.328125 -31.828125 19.140625 -31.484375 C 18.960938 -31.140625 18.691406 -30.75 18.328125 -30.3125 C 17.609375 -29.300781 17.25 -28.675781 17.25 -28.4375 C 17.25 -27.914062 17.125 -27.65625 16.875 -27.65625 C 16.832031 -27.570312 16.738281 -27.335938 16.59375 -26.953125 C 16.457031 -26.566406 16.269531 -26.15625 16.03125 -25.71875 C 15.875 -25.351562 15.671875 -24.945312 15.421875 -24.5 C 15.179688 -24.0625 14.984375 -23.757812 14.828125 -23.59375 L 14.890625 -23.59375 C 14.765625 -23.269531 14.539062 -22.675781 14.21875 -21.8125 C 13.894531 -20.945312 13.734375 -20.453125 13.734375 -20.328125 C 13.734375 -20.171875 14.015625 -20.09375 14.578125 -20.09375 C 15.828125 -20.09375 17.257812 -20.3125 18.875 -20.75 C 19.394531 -20.914062 19.78125 -21 20.03125 -21 C 20.3125 -21 20.710938 -20.914062 21.234375 -20.75 C 21.679688 -20.46875 22.046875 -20.003906 22.328125 -19.359375 C 22.609375 -18.710938 22.664062 -18.269531 22.5 -18.03125 C 22.46875 -17.863281 22.035156 -17.640625 21.203125 -17.359375 C 20.378906 -17.078125 19.523438 -16.859375 18.640625 -16.703125 C 17.390625 -16.421875 16.359375 -16.21875 15.546875 -16.09375 C 15.347656 -16.050781 14.710938 -15.925781 13.640625 -15.71875 C 12.578125 -15.519531 12.046875 -15.34375 12.046875 -15.1875 C 11.878906 -15.1875 11.734375 -15.101562 11.609375 -14.9375 C 11.492188 -14.78125 11.4375 -14.617188 11.4375 -14.453125 C 11.4375 -13.890625 11.351562 -13.46875 11.1875 -13.1875 C 10.988281 -12.582031 10.632812 -11.257812 10.125 -9.21875 C 9.625 -7.1875 9.375 -5.925781 9.375 -5.4375 C 9.050781 -5.039062 8.890625 -4.316406 8.890625 -3.265625 C 8.648438 -2.816406 8.53125 -2.3125 8.53125 -1.75 C 8.53125 -1.507812 8.507812 -1.3125 8.46875 -1.15625 C 8.46875 -0.945312 8.425781 -0.460938 8.34375 0.296875 C 8.269531 1.066406 8.234375 1.773438 8.234375 2.421875 L 8.046875 4.171875 C 8.003906 4.660156 7.941406 5.101562 7.859375 5.5 C 7.785156 5.90625 7.644531 6.207031 7.4375 6.40625 Z M 7.4375 6.40625 "/></g></g></g><g fill="#000000" fill-opacity="1"><g transform="translate(133.971829, 58.971376)"><g><path d="M 7.4375 6.40625 C 7.195312 6.570312 6.9375 6.539062 6.65625 6.3125 C 6.375 6.09375 5.929688 5.644531 5.328125 4.96875 C 5.085938 4.71875 4.925781 4.484375 4.84375 4.265625 C 4.757812 4.046875 4.71875 3.753906 4.71875 3.390625 L 4.84375 1.875 C 5.039062 1.269531 5.140625 0.566406 5.140625 -0.234375 C 5.140625 -0.554688 5.28125 -1.578125 5.5625 -3.296875 C 5.84375 -5.015625 6.066406 -6.253906 6.234375 -7.015625 L 6.40625 -7.75 C 6.726562 -9.070312 6.972656 -10.300781 7.140625 -11.4375 C 7.460938 -12.445312 7.734375 -13.441406 7.953125 -14.421875 C 8.171875 -15.410156 8.28125 -16.085938 8.28125 -16.453125 C 8.28125 -17.179688 8.566406 -17.707031 9.140625 -18.03125 C 9.179688 -18.351562 9.484375 -19.019531 10.046875 -20.03125 C 11.015625 -22.769531 11.726562 -24.734375 12.1875 -25.921875 C 12.65625 -27.109375 13.148438 -28.148438 13.671875 -29.046875 C 14.398438 -31.054688 14.984375 -32.320312 15.421875 -32.84375 C 15.703125 -33.53125 16.46875 -34.539062 17.71875 -35.875 C 18.976562 -37.207031 20.085938 -38.273438 21.046875 -39.078125 C 21.941406 -39.566406 22.660156 -39.878906 23.203125 -40.015625 C 23.742188 -40.160156 24.421875 -40.234375 25.234375 -40.234375 C 25.910156 -40.234375 26.378906 -40.160156 26.640625 -40.015625 C 26.910156 -39.878906 27.347656 -39.53125 27.953125 -38.96875 C 28.472656 -38.351562 28.785156 -37.945312 28.890625 -37.75 C 28.992188 -37.550781 29.046875 -37.171875 29.046875 -36.609375 C 28.878906 -35.753906 28.472656 -34.660156 27.828125 -33.328125 C 27.179688 -32.003906 26.695312 -31.320312 26.375 -31.28125 C 26.257812 -31.238281 26.097656 -31.21875 25.890625 -31.21875 C 25.285156 -31.21875 24.984375 -31.722656 24.984375 -32.734375 C 24.984375 -32.972656 24.921875 -33.210938 24.796875 -33.453125 C 24.679688 -33.691406 24.601562 -33.851562 24.5625 -33.9375 C 24.5625 -34.539062 24.703125 -35.046875 24.984375 -35.453125 C 25.109375 -35.691406 25.171875 -35.914062 25.171875 -36.125 C 25.171875 -36.320312 25.097656 -36.453125 24.953125 -36.515625 C 24.816406 -36.578125 24.609375 -36.566406 24.328125 -36.484375 C 23.960938 -36.273438 23.0625 -35.554688 21.625 -34.328125 C 20.195312 -33.097656 19.484375 -32.363281 19.484375 -32.125 C 19.441406 -32.039062 19.328125 -31.828125 19.140625 -31.484375 C 18.960938 -31.140625 18.691406 -30.75 18.328125 -30.3125 C 17.609375 -29.300781 17.25 -28.675781 17.25 -28.4375 C 17.25 -27.914062 17.125 -27.65625 16.875 -27.65625 C 16.832031 -27.570312 16.738281 -27.335938 16.59375 -26.953125 C 16.457031 -26.566406 16.269531 -26.15625 16.03125 -25.71875 C 15.875 -25.351562 15.671875 -24.945312 15.421875 -24.5 C 15.179688 -24.0625 14.984375 -23.757812 14.828125 -23.59375 L 14.890625 -23.59375 C 14.765625 -23.269531 14.539062 -22.675781 14.21875 -21.8125 C 13.894531 -20.945312 13.734375 -20.453125 13.734375 -20.328125 C 13.734375 -20.171875 14.015625 -20.09375 14.578125 -20.09375 C 15.828125 -20.09375 17.257812 -20.3125 18.875 -20.75 C 19.394531 -20.914062 19.78125 -21 20.03125 -21 C 20.3125 -21 20.710938 -20.914062 21.234375 -20.75 C 21.679688 -20.46875 22.046875 -20.003906 22.328125 -19.359375 C 22.609375 -18.710938 22.664062 -18.269531 22.5 -18.03125 C 22.46875 -17.863281 22.035156 -17.640625 21.203125 -17.359375 C 20.378906 -17.078125 19.523438 -16.859375 18.640625 -16.703125 C 17.390625 -16.421875 16.359375 -16.21875 15.546875 -16.09375 C 15.347656 -16.050781 14.710938 -15.925781 13.640625 -15.71875 C 12.578125 -15.519531 12.046875 -15.34375 12.046875 -15.1875 C 11.878906 -15.1875 11.734375 -15.101562 11.609375 -14.9375 C 11.492188 -14.78125 11.4375 -14.617188 11.4375 -14.453125 C 11.4375 -13.890625 11.351562 -13.46875 11.1875 -13.1875 C 10.988281 -12.582031 10.632812 -11.257812 10.125 -9.21875 C 9.625 -7.1875 9.375 -5.925781 9.375 -5.4375 C 9.050781 -5.039062 8.890625 -4.316406 8.890625 -3.265625 C 8.648438 -2.816406 8.53125 -2.3125 8.53125 -1.75 C 8.53125 -1.507812 8.507812 -1.3125 8.46875 -1.15625 C 8.46875 -0.945312 8.425781 -0.460938 8.34375 0.296875 C 8.269531 1.066406 8.234375 1.773438 8.234375 2.421875 L 8.046875 4.171875 C 8.003906 4.660156 7.941406 5.101562 7.859375 5.5 C 7.785156 5.90625 7.644531 6.207031 7.4375 6.40625 Z M 7.4375 6.40625 "/></g></g></g><g fill="#000000" fill-opacity="1"><g transform="translate(151.575792, 58.971376)"><g><path d="M 16.703125 -2.125 C 15.691406 -1.226562 14.476562 -0.78125 13.0625 -0.78125 C 12.0625 -0.78125 11.101562 -1.019531 10.1875 -1.5 C 9.28125 -1.988281 8.523438 -2.660156 7.921875 -3.515625 C 7.398438 -4.160156 7.015625 -4.882812 6.765625 -5.6875 C 6.523438 -6.488281 6.40625 -7.476562 6.40625 -8.65625 C 6.40625 -9.050781 6.445312 -9.859375 6.53125 -11.078125 C 6.65625 -12.566406 7.148438 -14.117188 8.015625 -15.734375 C 8.878906 -17.347656 9.957031 -18.789062 11.25 -20.0625 C 12.539062 -21.332031 13.8125 -22.207031 15.0625 -22.6875 C 15.707031 -23.09375 16.289062 -23.296875 16.8125 -23.296875 C 17.101562 -23.296875 17.390625 -23.273438 17.671875 -23.234375 C 17.953125 -23.191406 18.253906 -23.148438 18.578125 -23.109375 C 19.460938 -22.984375 20.132812 -22.8125 20.59375 -22.59375 C 21.0625 -22.375 21.457031 -22.039062 21.78125 -21.59375 C 22.789062 -20.59375 23.296875 -19.425781 23.296875 -18.09375 C 23.128906 -17.125 22.5 -16.015625 21.40625 -14.765625 C 20.320312 -13.515625 19.015625 -12.503906 17.484375 -11.734375 C 16.753906 -11.492188 15.925781 -11.375 15 -11.375 C 13.75 -11.375 12.742188 -11.632812 11.984375 -12.15625 C 11.617188 -12.28125 11.332031 -12.34375 11.125 -12.34375 C 10.769531 -12.34375 10.5 -12.097656 10.3125 -11.609375 C 10.132812 -11.128906 9.960938 -10.242188 9.796875 -8.953125 C 9.753906 -8.671875 9.734375 -8.269531 9.734375 -7.75 C 9.734375 -5.6875 10.421875 -4.554688 11.796875 -4.359375 C 12.722656 -4.148438 13.390625 -4.046875 13.796875 -4.046875 C 14.273438 -4.046875 14.816406 -4.207031 15.421875 -4.53125 L 16.578125 -5.203125 C 16.816406 -5.328125 17.035156 -5.488281 17.234375 -5.6875 C 17.441406 -5.882812 17.625 -6.066406 17.78125 -6.234375 C 17.863281 -6.316406 17.984375 -6.445312 18.140625 -6.625 C 18.304688 -6.800781 18.457031 -6.921875 18.59375 -6.984375 C 18.738281 -7.046875 18.875 -7.078125 19 -7.078125 C 19.15625 -7.078125 19.332031 -6.984375 19.53125 -6.796875 C 19.738281 -6.617188 19.90625 -6.488281 20.03125 -6.40625 C 20.382812 -6.40625 20.460938 -6.15625 20.265625 -5.65625 C 20.066406 -5.15625 19.632812 -4.570312 18.96875 -3.90625 C 18.300781 -3.238281 17.546875 -2.644531 16.703125 -2.125 Z M 16.640625 -14.9375 C 17.328125 -15.21875 18.019531 -15.722656 18.71875 -16.453125 C 19.425781 -17.179688 19.78125 -17.785156 19.78125 -18.265625 C 19.78125 -18.753906 19.597656 -19.160156 19.234375 -19.484375 C 18.867188 -19.804688 18.363281 -19.96875 17.71875 -19.96875 C 17.238281 -19.96875 16.878906 -19.925781 16.640625 -19.84375 C 16.078125 -19.6875 15.410156 -19.253906 14.640625 -18.546875 C 13.867188 -17.835938 13.203125 -17.117188 12.640625 -16.390625 C 12.078125 -15.671875 11.859375 -15.25 11.984375 -15.125 C 12.179688 -14.757812 12.96875 -14.578125 14.34375 -14.578125 C 15.269531 -14.578125 16.035156 -14.695312 16.640625 -14.9375 Z M 16.640625 -14.9375 "/></g></g></g><g fill="#000000" fill-opacity="1"><g transform="translate(171.236586, 58.971376)"><g><path d="M 7.203125 -2.125 C 6.878906 -2.363281 6.65625 -2.582031 6.53125 -2.78125 C 6.414062 -2.976562 6.359375 -3.28125 6.359375 -3.6875 C 6.359375 -4.050781 6.375 -4.351562 6.40625 -4.59375 C 6.53125 -5.96875 6.835938 -7.5625 7.328125 -9.375 L 7.625 -10.59375 C 7.738281 -11.59375 8.441406 -13.707031 9.734375 -16.9375 C 11.023438 -20.164062 12.078125 -22.363281 12.890625 -23.53125 C 13.210938 -23.738281 13.554688 -23.84375 13.921875 -23.84375 C 14.441406 -23.84375 14.882812 -23.660156 15.25 -23.296875 C 15.488281 -23.128906 15.609375 -22.828125 15.609375 -22.390625 C 15.609375 -21.984375 15.457031 -21.382812 15.15625 -20.59375 C 14.851562 -19.8125 14.335938 -18.65625 13.609375 -17.125 C 13.453125 -16.800781 13.179688 -16.191406 12.796875 -15.296875 C 12.410156 -14.410156 12.21875 -13.890625 12.21875 -13.734375 C 12.21875 -13.648438 12.238281 -13.609375 12.28125 -13.609375 C 12.363281 -13.609375 12.441406 -13.640625 12.515625 -13.703125 C 12.597656 -13.765625 12.679688 -13.816406 12.765625 -13.859375 C 13.210938 -14.617188 14.289062 -15.664062 16 -17 C 17.71875 -18.332031 18.898438 -19.160156 19.546875 -19.484375 C 19.828125 -19.640625 20.1875 -19.796875 20.625 -19.953125 C 21.070312 -20.117188 21.375 -20.242188 21.53125 -20.328125 C 22.175781 -20.648438 22.945312 -20.8125 23.84375 -20.8125 C 24.40625 -20.8125 24.894531 -20.71875 25.3125 -20.53125 C 25.738281 -20.351562 26.035156 -20.082031 26.203125 -19.71875 C 26.234375 -19.4375 26.335938 -19.210938 26.515625 -19.046875 C 26.703125 -18.890625 26.835938 -18.789062 26.921875 -18.75 C 27.046875 -18.75 27.125 -18.695312 27.15625 -18.59375 C 27.195312 -18.5 27.21875 -18.429688 27.21875 -18.390625 C 27.21875 -18.109375 27.054688 -17.9375 26.734375 -17.875 C 26.410156 -17.8125 25.828125 -17.757812 24.984375 -17.71875 C 24.546875 -17.6875 24.082031 -17.585938 23.59375 -17.421875 C 23.113281 -17.265625 22.628906 -17.0625 22.140625 -16.8125 C 19.878906 -15.53125 18.191406 -14.523438 17.078125 -13.796875 C 15.972656 -13.066406 14.859375 -12.078125 13.734375 -10.828125 C 13.285156 -10.347656 12.703125 -9.484375 11.984375 -8.234375 C 11.703125 -7.941406 11.40625 -7.203125 11.09375 -6.015625 C 10.789062 -4.828125 10.640625 -4.09375 10.640625 -3.8125 C 10.609375 -3.6875 10.53125 -3.453125 10.40625 -3.109375 C 10.28125 -2.765625 10.097656 -2.4375 9.859375 -2.125 C 9.378906 -1.476562 8.976562 -1.15625 8.65625 -1.15625 C 8.289062 -1.15625 7.804688 -1.476562 7.203125 -2.125 Z M 7.203125 -2.125 "/></g></g></g></g></g></svg>