<?xml version="1.0" encoding="UTF-8" standalone="no"?>
<svg
   version="1.0"
   width="300.000000pt"
   height="250.000000pt"
   viewBox="0 0 300.000000 250.000000"
   preserveAspectRatio="xMidYMid meet"
   id="svg7"
   sodipodi:docname="Logo_NONAME_vector.svg"
   inkscape:version="1.4.4 (dcaf3e7, 2026-05-05)"
   xmlns:inkscape="http://www.inkscape.org/namespaces/inkscape"
   xmlns:sodipodi="http://sodipodi.sourceforge.net/DTD/sodipodi-0.dtd"
   xmlns="http://www.w3.org/2000/svg"
   xmlns:svg="http://www.w3.org/2000/svg">
  <defs
     id="defs7" />
  <sodipodi:namedview
     id="namedview7"
     pagecolor="#ffffff"
     bordercolor="#000000"
     borderopacity="0.25"
     inkscape:showpageshadow="2"
     inkscape:pageopacity="0.0"
     inkscape:pagecheckerboard="0"
     inkscape:deskcolor="#d1d1d1"
     inkscape:document-units="pt"
     inkscape:zoom="1.4558069"
     inkscape:cx="176.87785"
     inkscape:cy="156.61418"
     inkscape:window-width="1512"
     inkscape:window-height="945"
     inkscape:window-x="0"
     inkscape:window-y="37"
     inkscape:window-maximized="0"
     inkscape:current-layer="g8" />
  <metadata
     id="metadata1">
Created by potrace 1.16, written by Peter Selinger 2001-2019
</metadata>
  <g
     transform="translate(0.000000,250.000000) scale(0.100000,-0.100000)"
     fill="#000000"
     stroke="none"
     id="g7">
    <path
       d="m 1198,912 c -55,-2 -84,1 -89,9 -5,9 -17,9 -51,0 -37,-10 -47,-19 -57,-47 -7,-19 -10,-38 -7,-43 4,-6 -9,-5 -31,1 -64,18 -133,2 -179,-40 -53,-48 -64,-71 -64,-129 v -49 l 78,-15 c 74,-13 59,-14 -353,-19 l -430,-5 465,-5 c 256,-3 922,-3 1480,0 821,4 902,6 421,8 -327,1 -592,4 -590,7 3,2 70,5 150,6 79,1 154,6 167,11 37,13 54,35 47,60 -5,18 -4,20 4,8 9,-13 11,-13 11,3 0,9 -4,17 -10,17 -5,0 -10,7 -10,15 0,18 -26,20 -33,3 -4,-10 -7,-10 -14,-1 -5,6 -31,13 -58,15 l -50,3 50,16 c 37,12 54,23 64,45 8,16 18,37 23,46 13,27 10,47 -11,69 -26,28 -112,38 -346,40 -163,1 -184,3 -148,12 23,7 47,17 54,24 6,6 17,9 23,7 18,-7 97,24 112,44 7,9 14,25 14,35 0,9 6,17 14,17 8,0 17,11 20,25 4,17 12,25 23,23 12,-2 21,9 31,36 7,22 10,46 8,53 -3,7 -1,13 4,13 21,0 9,38 -14,44 -13,3 -26,14 -30,23 -3,10 -10,25 -15,33 -5,8 -13,29 -18,45 -7,26 -14,30 -43,30 -19,0 -39,3 -45,7 -20,13 -102,18 -180,10 -73,-6 -81,-9 -95,-35 -13,-24 -13,-29 0,-37 12,-7 11,-10 -5,-15 -46,-14 -70,-32 -73,-55 -2,-13 -10,-33 -17,-44 -16,-26 -11,-106 7,-117 11,-8 11,-10 -1,-18 -7,-5 -9,-10 -4,-12 16,-6 3,-139 -13,-139 -56.7695,27.95826 -122.7388,-36.43174 -186,-38 z m 557,488 c -3,-5 -1,-10 6,-10 7,0 10,-2 7,-5 -3,-3 -18,1 -34,10 l -29,15 h 28 c 16,0 26,-4 22,-10 z m -115,-60 c -11,-7 -9,-11 14,-20 15,-5 44,-24 64,-40 19,-16 38,-27 42,-25 34,21 48,-98 17,-146 -9,-14 -16,-27 -15,-30 2,-2 1,-3 0,-2 -2,1 -19,-12 -38,-30 -19,-17 -42,-32 -52,-33 -9,-2 -18,-8 -20,-14 -9,-25 -36,-41 -59,-35 -13,3 -32,1 -43,-5 -16,-9 -20,-7 -21,7 0,11 -3,13 -6,6 -2,-7 -11,-13 -19,-13 -8,0 -14,6 -13,13 4,20 -23,66 -42,72 -16,5 -17,13 -12,51 4,33 2,44 -8,44 -8,0 -5,5 7,14 15,11 22,12 34,3 13,-11 13,-10 1,6 -12,15 -10,22 12,55 29,44 84,102 98,102 5,0 9,7 9,15 0,10 10,15 33,15 23,0 28,-3 17,-10 z m 105,-10 c 3,-5 -1,-10 -9,-10 -8,0 -18,5 -21,10 -3,6 1,10 9,10 8,0 18,-4 21,-10 z m -267,-49 c -12,-15 -28,-37 -34,-47 -9,-14 -15,-16 -23,-8 -9,8 -1,20 29,47 48,44 60,48 28,8 z m -8,-293 c 0,-6 -7,-5 -15,2 -8,7 -15,17 -15,22 0,6 7,5 15,-2 8,-7 15,-17 15,-22 z m 585,-100 c 35,-13 40,-19 37,-43 -5,-46 -40,-74 -96,-76 -28,-2 -51,2 -53,7 -5,15 -154,9 -163,-7 -6,-9 -24,-10 -72,-4 -60,8 -166,13 -328,16 -41,1 -79,4 -85,8 -5,3 -60,6 -121,6 -79,0 -116,4 -127,14 -23,18 -22,50 1,49 88,-3 399,18 451,31 93,23 497,22 556,-1 z M 976,794 c 27,-9 53,-21 59,-25 5,-5 16,-9 25,-9 8,0 28,-7 44,-15 15,-8 48,-15 72,-15 23,0 46,-4 49,-10 3,-5 21,-10 39,-10 18,0 55,-7 83,-15 32,-10 83,-14 144,-12 52,1 111,-2 131,-6 33,-8 37,-7 40,15 l 3,23 23,-22 c 25,-26 61,-29 161,-12 48,7 66,7 72,-2 5,-8 23,-10 56,-5 29,3 63,2 82,-5 28,-10 34,-9 46,7 13,18 14,18 15,2 0,-10 -1,-21 -2,-25 -3,-9 -238,-17 -360,-13 -114,4 -222,0 -228,-9 -7,-13 -80,-15 -172,-6 -62,7 -68,6 -69,-11 0,-11 -3,-14 -6,-6 -3,8 -37,12 -117,12 -141,0 -248,-10 -221,-21 16,-6 14,-8 -11,-8 -18,-1 -34,5 -37,12 -2,6 -26,18 -52,26 -25,7 -49,20 -52,28 -10,25 11,95 32,107 11,6 31,19 44,29 29,21 44,21 107,1 z m 629,-63 c 66,-6 62,-7 -73,-14 -113,-7 -147,-6 -159,5 -14,11 -13,14 13,20 27,6 50,5 219,-11 z M 1183,583 c -7,-2 -21,-2 -30,0 -10,3 -4,5 12,5 17,0 24,-2 18,-5 z"
       id="path1"
       sodipodi:nodetypes="cccccccsccccccccccccsssccccccccccsccssccccsccscsccccccccccsccssccscscccccccccccccscccsccccsssscscscscccssssssccccccccsccccccscscscccccccccccccccccsscccccccccccccccsc" />
    <path
       d="M1554 1235 c-9 -21 23 -66 41 -59 13 5 13 8 0 21 -8 8 -15 23 -15 34 0 23 -18 25 -26 4z"
       id="path2" />
    <path
       d="M1615 1150 c6 -10 70 -30 95 -30 11 1 8 7 -9 20 -23 20 -98 29 -86 10z"
       id="path3" />
    <path
       d="M1541 1117 c-13 -17 -4 -27 23 -26 21 0 21 1 1 9 -19 8 -19 8 5 18 23 10 23 11 4 11 -12 1 -27 -5 -33 -12z"
       id="path4" />
    <path
       d="M1477 1113 c-11 -11 -8 -17 23 -51 27 -30 35 -33 77 -30 l48 3 -50 16 c-35 11 -54 24 -63 42 -13 27 -23 33 -35 20z"
       id="path5" />
    <path
       d="M 1081,1230 C 0,2500 0,2500 1081,1230 Z"
       id="path6"
       sodipodi:nodetypes="ss" />
    <path
       d="M1313 793 c9 -2 23 -2 30 0 6 3 -1 5 -18 5 -16 0 -22 -2 -12 -5z"
       id="path7" />
  </g>
  <g
     id="g8"
     transform="translate(29.207695,9.2024246)">
    <path
       d="m 41.83858,71.607283 c -0.6,1.5 -7,9.1 -11.3,13.5 -2.6,2.7 -3.7,4.5 -3.3,5.8 0.3,1.2 0,2 -0.7,2 -1.6,0 -6.6,14.399997 -6.6,18.699997 0,1.7 -0.4,3.5 -1,3.8 -0.5,0.3 -1,4.4 -1,9.1 0,4.9 0.4,8.4 1,8.4 1.7,0 1.1,3.9 -1,6 -2.1,2.1 -1.9,7 0.4,7 0.6,0 0.5,0.4 -0.3,0.9 -2.5,1.6 -0.4,4.1 3.4,4.1 1.9,0 3.5,-0.5 3.5,-1 0,-0.6 1.1,-1 2.4,-1 1.4,0 3.3,-1.1 4.4,-2.5 1.1,-1.4 2.5,-2.5 3.1,-2.5 0.6,0 1.1,-1.4 1.1,-3 0,-2 -0.5,-3 -1.5,-3 -0.9,0 -1.5,0.9 -1.5,2.3 0,2.3 -2.5,3.9 -8.2,5.3 -1.6,0.3 -2.5,1 -2.2,1.5 0.3,0.5 -0.2,0.9 -1.1,0.9 -1.3,0 -1.5,-0.6 -1,-3.3 0.4,-1.7 1.2,-3.8 1.8,-4.5 0.7,-0.8 1.2,-7.1 1.3,-15.5 0.1,-13 1.2,-19.7 3.3,-19.7 0.3,0 1.3,1.4 2,3.2 2.5,5.6 6.1,8.8 9.8,8.8 2.3,0 3.3,-0.5 3.3,-1.5 0,-0.9 -0.9,-1.5 -2.3,-1.5 -2.8,0 -4.7,-1.8 -4,-3.7 0.3,-0.8 -0.3,-2.4 -1.5,-3.6 -3.3,-3.7 -4.5,-8.899997 -2.9,-12.799997 l 1.4,-3.4 0.6,6.9 c 0.7,7.699997 2.8,10.899997 8.1,12.599997 l 3.1,1 -3.5,-0.5 c -2.9,-0.4 -3.2,-0.3 -1.6,0.6 3.4,2.1 5.5,4.6 4.4,5.7 -0.6,0.6 0,0.8 1.8,0.4 3,-0.5 2.9,-0.1 -1.2,5.5 -1.3,1.7 -2.4,3.8 -2.4,4.7 0,2.8 -1.2,4.6 -3.1,4.6 -1.5,0 -1.9,0.7 -1.9,3.6 0,2.5 0.4,3.3 1.2,2.8 3.4,-2.1 5.8,-5 7.3,-9 0.9,-2.4 2.2,-4.4 2.8,-4.4 0.7,0 1.8,-0.9 2.5,-2 0.7,-1.1 1.9,-2 2.6,-2 0.8,0 2.4,-1.6 3.6,-3.5 1.2,-1.9 2.5,-3.5 2.9,-3.5 0.5,0 2,1.7 3.5,3.8 3,4.4 8,9.1 13.1,12.2 2,1.2 3.5,3 3.5,4.1 0,1 3.4,5.3 7.5,9.5 4.1,4.2 7.5,7.7 7.5,7.8 0,0.1 9,-4.4 9,-5.9 0,-2.5 -5.1,-8.3 -10.4,-11.9 -1.6,-1 -4.6,-4.7 -6.8,-8.2 -2.2,-3.5 -4.3,-6.4 -4.7,-6.4 -0.4,0 -3.5,-2.5 -6.9,-5.6 l -6.2,-5.5 2.2,-3 c 2.9,-3.9 3.7,-13.899997 1,-13.899997 -0.9,0 -2.8,-1.8 -4.2,-4 -1.4,-2.2 -2.8,-4 -3.2,-4 -0.5,0 -0.8,-0.9 -0.8,-2 0,-1.3 -1.2,-2.6 -3.5,-3.7 -1.9,-0.9 -3.2,-1.9 -3,-2.3 0.2,-0.3 0,-1.2 -0.5,-1.9 -0.9,-1.6 -14.6,-2.8 -15.1,-1.4 z m 9.1,4.1 c 0,0.5 2.2,1.9 4.9,3.2 3.2,1.4 5.2,3.1 5.5,4.5 0.3,1.2 1.9,3.9 3.6,6 2.9,3.6 3.9,6.5 2.3,6.5 -0.5,0 -2.1,2 -3.6,4.499997 -1.6,2.5 -3.3,4.5 -3.8,4.5 -0.5,0 -0.9,0.7 -0.9,1.5 0,1.1 -1.2,1.5 -4.8,1.5 -3.9,0 -5.2,-0.5 -7.5,-2.9 -1.5,-1.6 -2.7,-3.5 -2.7,-4.2 0,-0.7 -0.6,-1.999997 -1.4,-2.799997 -0.8,-0.9 -1.8,-3.8 -2.4,-6.5 -1,-4.9 0.2,-10.6 3,-14.3 1.3,-1.7 7.8,-2.9 7.8,-1.5 z m 19.8,40.699997 c 2.2,1.9 4.1,3.2 4.5,2.9 0.7,-0.7 7.9,6.5 7.3,7.5 -0.3,0.4 2,3.4 5,6.6 3,3.3 5.4,6.3 5.4,6.8 0,0.4 2,2.9 4.5,5.4 3.6,3.6 1.8,6.4 0,2.9 -1.1,-2.1 -3.1,-4.6 -4.5,-5.5 -3.8,-2.4 -10,-9.4 -10,-11.3 0,-0.9 -2,-3.1 -4.5,-4.8 -7.2,-5 -15.3,-14 -12.5,-14 0.5,0 2.7,1.6 4.8,3.5 z"
       id="net"
       style="stroke-width:0.1">
      <animateTransform
        attributeName="transform"
        type="rotate"
        values="5,55,155; 195,55,155; 5,55,155"
        dur="4s"
        repeatCount="indefinite"
        calcMode="spline"
        keySplines="0.37 0 0.63 1; 0.37 0 0.63 1"
        keyTimes="0;0.5;1"
      />
    </path>
  </g>
</svg>
